<?xml version="1.0" encoding="utf-8"?>
<!-- Generator: Adobe Illustrator 19.0.0, SVG Export Plug-In . SVG Version: 6.00 Build 0)  -->
<svg version="1.1" id="Layer_1" xmlns="http://www.w3.org/2000/svg" xmlns:xlink="http://www.w3.org/1999/xlink" x="0px" y="0px"
	 viewBox="0 0 800 600" style="enable-background:new 0 0 800 600;" xml:space="preserve">
<style type="text/css">
	.st0{fill:#6DFAFF;}
	.st1{fill:#FFA338;}
</style>
<g>
	<path class="st0" d="M102.8,138.6H91.9v16.7c0,3.3,1.5,6.1,5.1,6.1c2.2,0,3.9-0.8,5.6-2.1v6.6c-2.1,1.5-4.4,2-7,2
		c-7.1,0-10.9-5-10.9-11.9v-17.4H74v-6.9h10.7v-19.9h7.2v19.9h10.9V138.6z"/>
	<path class="st0" d="M155.2,165.9c-2.2,1.5-4.9,2-7.4,2c-6.1,0-9.8-5.2-9.8-10.9v-11.6c0-4.8-2.6-8.3-7.7-8.3
		c-4.2,0-8.8,4.1-8.8,10.8V167h-7.2V96h7.2v40.8c2.2-3.7,6-6,10.3-6c8.2,0,13.4,6.1,13.4,14v11.5c0,2.9,1.8,5,4.8,5
		c2,0,3.7-0.6,5.2-2V165.9z"/>
	<path class="st0" d="M179.2,167.9c-10.2,0-18.5-8.3-18.5-18.5s8.3-18.6,18.5-18.6s18.4,8.4,18.4,18.6S189.4,167.9,179.2,167.9z
		 M190.8,145.8c-1,0.9-2.3,1.4-3.7,1.4c-3.2,0-5.9-2.6-5.9-5.8c0-1.3,0.5-2.6,1.4-3.7c-1.1-0.3-2.2-0.5-3.3-0.5
		c-6.7,0-12.2,5.6-12.2,12.3c0,6.7,5.5,12,12.2,12c6.6,0,12.1-5.3,12.1-12C191.4,148.2,191.2,147,190.8,145.8z"/>
	<path class="st0" d="M253,165.9c-2.2,1.5-4.9,2-7.4,2c-4.5,0-8-3-9.3-7.2c-1.9,4.4-6,7.3-10.8,7.3c-8.2,0-13.4-6.2-13.4-14.1v-22.2
		h7.2v21.6c0,4.8,2.6,8.3,7.7,8.3c4.8,0,8.8-4.6,8.8-10.7v-19.2h7.2v24.6c0,2.9,1.8,5,4.8,5c2,0,3.7-0.6,5.2-2V165.9z"/>
	<path class="st0" d="M296.4,174.2c0,7.2-5.1,15.2-12.7,16l-2.5-6.2c4.5-0.7,8-5.4,8-9.8v-13.1c-3,4.4-7.6,6.8-13,6.8
		c-10.3,0-17.7-8.5-17.7-18.5c0-10.1,7.4-18.6,17.7-18.6c5.4,0,10,2.4,13,6.9v-6h7.2V174.2z M289.2,146.6c0-0.3-0.6-1.9-0.7-2.2
		c-1.9-4.3-6.2-7.3-10.9-7.3c-6.7,0-11.9,5.7-11.9,12.3c0,6.5,5.2,12.2,11.9,12.2c4.7,0,9-2.9,10.9-7.3c0.1-0.3,0.7-1.8,0.7-2.2
		V146.6z"/>
	<path class="st0" d="M355.3,165.9c-2.2,1.5-4.9,2-7.4,2c-6.1,0-9.8-5.2-9.8-10.9v-11.6c0-4.8-2.6-8.3-7.7-8.3
		c-4.2,0-8.8,4.1-8.8,10.8V167h-7.2V96h7.2v40.8c2.2-3.7,6-6,10.3-6c8.2,0,13.4,6.1,13.4,14v11.5c0,2.9,1.8,5,4.8,5
		c2,0,3.7-0.6,5.2-2V165.9z"/>
	<path class="st0" d="M386.6,138.6h-10.9v16.7c0,3.3,1.5,6.1,5.1,6.1c2.2,0,3.9-0.8,5.6-2.1v6.6c-2.1,1.5-4.4,2-7,2
		c-7.1,0-10.9-5-10.9-11.9v-17.4h-10.7v-6.9h10.7v-19.9h7.2v19.9h10.9V138.6z"/>
	<path class="st0" d="M427.9,104.8c-2.5-2.1-5.2-2.8-8.4-2.8c-5.1,0-8.5,3.9-8.5,8.8v20.9h12.3v6.9H411v35.6c0,7.2-5.1,15.2-12.8,16
		l-2.5-6.2c4.6-0.6,8.1-5.4,8.1-9.8v-35.6h-12.2v-6.9h12.2v-20.9c0-9.2,6.4-15.9,15.7-15.9c3,0,5.9,0.7,8.4,2.5V104.8z"/>
	<path class="st0" d="M472.8,165.9c-2.2,1.5-4.9,2-7.4,2c-4.5,0-8-3-9.3-7.2c-1.9,4.4-6,7.3-10.8,7.3c-8.2,0-13.4-6.2-13.4-14.1
		v-22.2h7.2v21.6c0,4.8,2.6,8.3,7.7,8.3c4.8,0,8.8-4.6,8.8-10.7v-19.2h7.2v24.6c0,2.9,1.8,5,4.8,5c2,0,3.7-0.6,5.2-2V165.9z"/>
	<path class="st0" d="M499,165.9c-2.2,1.5-4.9,2-7.4,2c-6.1,0-9.8-5.2-9.8-10.9V96h7.2v60.3c0,2.9,1.8,5,4.8,5c2,0,3.7-0.6,5.2-2
		V165.9z"/>
</g>
<g>
	<path class="st1" d="M382.8,228.8c-7.3,0-13.3-6-13.3-13.3V177h5.2v38.5c0,4.5,3.9,8.4,8.4,8.4c4.8,0,8.4-3.9,8.4-8.6
		c0-2.4-0.9-5.3-3.1-6.6l-0.4,0.5c-0.6,1.2-1.9,2-3.2,2c-2.4,0-4.5-2.1-4.5-4.5c0-2.7,2.5-4.8,5.1-4.8c7.2,0,10.9,6.8,10.9,13.2
		C396.3,222.6,390.2,228.8,382.8,228.8z"/>
	<path class="st1" d="M413.3,222.7c1.5,1,3.2,1.5,5,1.5c2.7,0,5.6-0.6,7.8-2.3v5.2c-2.4,1.2-5.3,1.7-7.8,1.7c-7.7,0-14-5.5-14-13.5
		c0-7.1,5.9-13.2,13-13.2c4.5,0,8.4,2.1,11.1,5.7L413.3,222.7z M421.8,208.3c-1.3-1.1-3-1.7-4.7-1.7c-4.8,0-8.1,4-8.1,8.6
		c0,1.7,0.4,3.2,1.4,4.6L421.8,208.3z"/>
	<path class="st1" d="M458.6,192.7c-2.2,0-4-1.8-4-4c0-2.2,1.8-4,4-4c2.2,0,4,1.8,4,4C462.6,190.9,460.8,192.7,458.6,192.7z
		 M468.4,227.3c-1.5,1.1-3.5,1.4-5.3,1.4c-4.3,0-7.1-3.7-7.1-7.8v-18.2h5.2v17.7c0,2,1.3,3.6,3.5,3.6c1.4,0,2.7-0.4,3.7-1.4V227.3z"
		/>
	<path class="st1" d="M504.3,227.3c-1.6,1.1-3.5,1.4-5.3,1.4c-4.4,0-7.1-3.7-7.1-7.8v-8.4c0-3.5-1.9-6-5.5-6c-3.5,0-6.3,3.4-6.3,7.6
		v14h-5.2v-25.4h5.2v3.7c1.5-2.7,4.2-4.4,7.4-4.4c5.9,0,9.6,4.3,9.6,10.1v8.3c0,2.1,1.3,3.6,3.5,3.6c1.4,0,2.6-0.4,3.7-1.4V227.3z"
		/>
	<path class="st1" d="M512.9,228.8c-1.9,0-4-0.4-5.7-1.4v-5.1c1.2,1.1,2.7,1.9,4.4,1.9c1.9,0,3.5-1.5,3.5-3.5c0-1.9-1.2-3.5-2.6-5.2
		c-1.6-1.9-3-3.8-3-6.3c0-3.3,1.7-6,4.7-7.3l2.9,3.7c-1.4,0.7-2.4,2-2.4,3.6c0,1.7,1.1,3,2.3,4.6c1.5,1.9,3.2,4.2,3.2,7.4
		C520.2,225.3,517.2,228.8,512.9,228.8z"/>
	<path class="st1" d="M545.2,228.8c-3.9,0-7.2-1.7-9.4-5v20.4h-5.2v-41.5h5.2v4.3c2.2-3.2,5.5-5,9.4-5c7.4,0,12.7,6.1,12.7,13.4
		C558,222.6,552.6,228.8,545.2,228.8z M544.3,206.6c-3.5,0-6.5,2.1-7.8,5.2c-0.1,0.2-0.6,1.4-0.6,1.6v4.1c0,0.3,0.4,1.4,0.6,1.6
		c1.4,3.1,4.4,5.2,7.8,5.2c4.8,0,8.6-4.1,8.6-8.8C552.9,210.7,549,206.6,544.3,206.6z"/>
	<path class="st1" d="M570.9,192.7c-2.2,0-4-1.8-4-4c0-2.2,1.8-4,4-4c2.2,0,4,1.8,4,4C575,190.9,573.2,192.7,570.9,192.7z
		 M580.7,227.3c-1.5,1.1-3.5,1.4-5.3,1.4c-4.3,0-7.1-3.7-7.1-7.8v-18.2h5.2v17.7c0,2,1.3,3.6,3.5,3.6c1.4,0,2.7-0.4,3.7-1.4V227.3z"
		/>
	<path class="st1" d="M600,210.5c-1.7,0-3-0.9-3.5-2.5c-1.9,0.9-3.2,2.7-3.8,4.7c-0.1,0.2-0.3,1.1-0.3,1.3v14.1h-5.2v-25.4h5.2v4.4
		c1.5-2.8,4.2-5,7.4-5c2.4,0,4.4,1.9,4.4,4.3C604.2,208.7,602.3,210.5,600,210.5z"/>
	<path class="st1" d="M617.9,222.7c1.5,1,3.2,1.5,5,1.5c2.7,0,5.6-0.6,7.8-2.3v5.2c-2.4,1.2-5.3,1.7-7.8,1.7c-7.7,0-14-5.5-14-13.5
		c0-7.1,5.9-13.2,13-13.2c4.5,0,8.4,2.1,11.1,5.7L617.9,222.7z M626.5,208.3c-1.3-1.1-3-1.7-4.7-1.7c-4.8,0-8.1,4-8.1,8.6
		c0,1.7,0.4,3.2,1.4,4.6L626.5,208.3z"/>
	<path class="st1" d="M673.7,227.3c-1.6,1.1-3.5,1.4-5.3,1.4c-3.3,0-5.9-2.3-6.8-5.4c-2.1,3.5-5.5,5.4-9.6,5.4
		c-7.4,0-12.7-6.1-12.7-13.3c0-7.3,5.3-13.4,12.7-13.4c3.9,0,7.2,1.7,9.4,5v-30h5.2v43.4c0,2.1,1.3,3.6,3.5,3.6
		c1.4,0,2.7-0.4,3.7-1.4V227.3z M661.3,213.4c0-0.2-0.4-1.4-0.5-1.6c-1.4-3.1-4.5-5.3-7.8-5.3c-4.8,0-8.6,4.1-8.6,8.9
		c0,4.7,3.7,8.8,8.6,8.8c3.4,0,6.5-2.1,7.8-5.3c0.1-0.2,0.5-1.3,0.5-1.6V213.4z"/>
</g>
</svg>
